<svg xmlns="http://www.w3.org/2000/svg" viewBox="0 0 24 24" width="48px" height="48px">
    <path d="M 14.998047 1.9980469 L 8.9980469 2.0039062 L 7.1640625 4 L 4 4 C 2.9 4 2 4.9 2 6 L 2 18 C 2 19.1 2.9 20 4 20 L 20 20 C 21.1 20 22 19.1 22 18 L 22 6 C 22 4.9 21.1 4 20 4 L 16.84375 4 L 14.998047 1.9980469 z M 14.121094 3.9980469 L 15.966797 6 L 20 6 L 20 18 L 4 18 L 4 6 L 8.0429688 6 L 9.8789062 4.0019531 L 14.121094 3.9980469 z M 12 7 C 9.239 7 7 9.239 7 12 C 7 14.761 9.239 17 12 17 C 14.761 17 17 14.761 17 12 C 17 9.239 14.761 7 12 7 z M 12 9 C 13.657 9 15 10.343 15 12 C 15 13.657 13.657 15 12 15 C 10.343 15 9 13.657 9 12 C 9 10.343 10.343 9 12 9 z"/>
</svg>
