<svg width="24" height="24" viewBox="0 0 24 24" fill="none" xmlns="http://www.w3.org/2000/svg">
    <path d="M16.757 3.00001L9.291 10.466L9.299 14.713L13.537 14.706L21 7.24301V20C21 20.2652 20.8946 20.5196 20.7071 20.7071C20.5196 20.8946 20.2652 21 20 21H4C3.73478 21 3.48043 20.8946 3.29289 20.7071C3.10536 20.5196 3 20.2652 3 20V4.00001C3 3.73479 3.10536 3.48044 3.29289 3.2929C3.48043 3.10536 3.73478 3.00001 4 3.00001H16.757ZM20.485 2.10001L21.9 3.51601L12.708 12.708L11.296 12.711L11.294 11.294L20.485 2.10001Z" fill="currentColor"/>
</svg>
