<svg width="32" height="32" viewBox="0 0 32 32" fill="none" xmlns="http://www.w3.org/2000/svg">
    <path d="M20.75 11C20.75 9.61979 20.2373 8.44141 19.2119 7.46484C18.1865 6.48828 16.9492 6 15.5 6C14.0508 6 12.8135 6.48828 11.7881 7.46484C10.7627 8.44141 10.25 9.61979 10.25 11C10.25 12.3802 10.7627 13.5586 11.7881 14.5352C12.8135 15.5117 14.0508 16 15.5 16C16.9492 16 18.1865 15.5117 19.2119 14.5352C20.2373 13.5586 20.75 12.3802 20.75 11ZM26 11C26 12.4193 25.7744 13.5846 25.3232 14.4961L17.8584 29.6133C17.6396 30.043 17.3149 30.3815 16.8843 30.6289C16.4536 30.8763 15.9922 31 15.5 31C15.0078 31 14.5464 30.8763 14.1157 30.6289C13.6851 30.3815 13.3672 30.043 13.1621 29.6133L5.67676 14.4961C5.22559 13.5846 5 12.4193 5 11C5 8.23958 6.02539 5.88281 8.07617 3.92969C10.127 1.97656 12.6016 1 15.5 1C18.3984 1 20.873 1.97656 22.9238 3.92969C24.9746 5.88281 26 8.23958 26 11Z" fill="currentColor"/>
</svg>
