<svg width="140" height="140" viewBox="0 0 140 140" fill="none" xmlns="http://www.w3.org/2000/svg">
    <path d="M108.5 6.49508e-06C114.918 0.000487336 121.183 1.96143 126.456 5.62036C131.729 9.27929 135.758 14.4616 138.005 20.4736C140.251 26.4856 140.608 33.0404 139.027 39.2607C137.445 45.4809 134.002 51.0697 129.157 55.279C131.642 62.048 133 69.37 133 77C132.995 86.2042 130.973 95.2956 127.077 103.634C123.18 111.973 117.504 119.357 110.447 125.266C103.39 131.176 95.1245 135.467 86.2309 137.838C77.3374 140.209 68.0323 140.603 58.9702 138.992C49.9081 137.38 41.3092 133.803 33.7784 128.511C26.2476 123.219 19.9678 116.341 15.3808 108.361C10.7938 100.382 8.01102 91.4936 7.22824 82.3227C6.44547 73.1518 7.68171 63.9208 10.85 55.279C7.42061 52.2988 4.67648 48.6121 2.80588 44.4717C0.935273 40.3313 -0.017536 35.8352 0.0128186 31.292C0.0431732 26.7487 1.05597 22.2658 2.98173 18.1507C4.9075 14.0357 7.70064 10.3859 11.1695 7.45184C14.6384 4.51776 18.701 2.36879 23.0785 1.15238C27.456 -0.0640317 32.0448 -0.319102 36.5302 0.404667C41.0155 1.12844 45.2912 2.81392 49.0639 5.34547C52.8366 7.87703 56.017 11.1947 58.387 15.071C66.0674 13.6379 73.9466 13.6379 81.627 15.071C84.4377 10.4651 88.3859 6.65967 93.0921 4.02034C97.7983 1.381 103.104 -0.00346037 108.5 6.49508e-06ZM108.5 14C102.739 14 97.475 16.8 94.234 21.364L93.569 22.372L88.543 30.604L79.058 28.833C73.8226 27.8562 68.4637 27.7333 63.189 28.469L60.977 28.833L51.485 30.618L46.445 22.386C45.1571 20.2766 43.4371 18.4638 41.398 17.0672C39.359 15.6705 37.0472 14.7216 34.615 14.2829C32.1827 13.8442 29.6851 13.9256 27.2866 14.5219C24.8881 15.1182 22.6431 16.2157 20.6994 17.7423C18.7557 19.2689 17.1574 21.1899 16.0098 23.3788C14.8621 25.5676 14.1911 27.9748 14.041 30.4418C13.8908 32.9087 14.2649 35.3795 15.1386 37.6914C16.0123 40.0033 17.3658 42.104 19.11 43.855L20.027 44.716L27.314 51.044L23.989 60.109C21.5274 66.8301 20.5681 74.0088 21.1786 81.1404C21.7891 88.272 23.9546 95.1833 27.5228 101.388C31.0911 107.593 35.9753 112.941 41.8322 117.055C47.689 121.17 54.3761 123.952 61.4233 125.204C68.4705 126.457 75.7066 126.151 82.6227 124.307C89.5388 122.463 95.967 119.127 101.455 114.532C106.943 109.937 111.358 104.196 114.389 97.7114C117.421 91.2272 118.994 84.1577 119 77C119 71.988 118.251 67.088 116.802 62.419L116.018 60.109L112.693 51.044L119.973 44.716C122.666 42.3781 124.581 39.2731 125.461 35.8168C126.341 32.3604 126.144 28.7177 124.896 25.3766C123.648 22.0355 121.409 19.1555 118.478 17.1223C115.548 15.089 112.067 13.9996 108.5 14ZM56 77C56 80.713 57.475 84.274 60.1005 86.8995C62.726 89.525 66.287 91 70 91C73.713 91 77.274 89.525 79.8995 86.8995C82.525 84.274 84 80.713 84 77H98C98 84.4261 95.05 91.548 89.799 96.799C84.548 102.05 77.4261 105 70 105C62.5739 105 55.452 102.05 50.201 96.799C44.95 91.548 42 84.4261 42 77H56Z" fill="currentColor"/>
</svg>
