<svg width="32" height="32" viewBox="0 0 32 32" fill="none" xmlns="http://www.w3.org/2000/svg">
    <path d="M18.6666 2.66669C21.1066 2.66552 23.4732 3.50091 25.3718 5.03352C27.2703 6.56613 28.5861 8.70332 29.0995 11.0886C29.613 13.474 29.2932 15.9632 28.1934 18.1413C27.0936 20.3193 25.2803 22.0545 23.056 23.0574C22.345 24.6292 21.2633 26.0052 19.9038 27.0673C18.5442 28.1293 16.9474 28.8458 15.2501 29.1551C13.5529 29.4645 11.806 29.3576 10.1591 28.8436C8.51228 28.3296 7.01469 27.4238 5.79479 26.2039C4.57489 24.984 3.66908 23.4864 3.15506 21.8395C2.64104 20.1927 2.53413 18.4457 2.84352 16.7485C3.1529 15.0513 3.86935 13.4544 4.9314 12.0949C5.99345 10.7353 7.36942 9.65368 8.94131 8.94269C9.78683 7.07187 11.1541 5.48469 12.8791 4.3715C14.6041 3.25831 16.6136 2.66637 18.6666 2.66669ZM13.3333 10.6667C12.2827 10.6667 11.2424 10.8736 10.2718 11.2757C9.30123 11.6777 8.41932 12.267 7.67645 13.0098C6.93358 13.7527 6.34431 14.6346 5.94227 15.6052C5.54023 16.5758 5.33331 17.6161 5.33331 18.6667C5.33331 19.7173 5.54023 20.7575 5.94227 21.7282C6.34431 22.6988 6.93358 23.5807 7.67645 24.3235C8.41932 25.0664 9.30123 25.6557 10.2718 26.0577C11.2424 26.4598 12.2827 26.6667 13.3333 26.6667C15.455 26.6667 17.4899 25.8238 18.9902 24.3235C20.4904 22.8232 21.3333 20.7884 21.3333 18.6667C21.3333 16.545 20.4904 14.5101 18.9902 13.0098C17.4899 11.5095 15.455 10.6667 13.3333 10.6667ZM14.6666 12V13.3334H17.3333V16H12C11.8334 15.9997 11.6727 16.0618 11.5496 16.174C11.4265 16.2863 11.3499 16.4405 11.3348 16.6064C11.3198 16.7724 11.3674 16.9379 11.4683 17.0705C11.5692 17.203 11.716 17.293 11.88 17.3227L12 17.3334H14.6666C15.5507 17.3334 16.3985 17.6845 17.0237 18.3097C17.6488 18.9348 18 19.7826 18 20.6667C18 21.5507 17.6488 22.3986 17.0237 23.0237C16.3985 23.6488 15.5507 24 14.6666 24V25.3334H12V24H9.33331V21.3334H14.6666C14.8332 21.3337 14.9939 21.2716 15.117 21.1593C15.2401 21.0471 15.3168 20.8928 15.3318 20.7269C15.3469 20.561 15.2992 20.3955 15.1983 20.2629C15.0974 20.1303 14.9506 20.0404 14.7866 20.0107L14.6666 20H12C11.1159 20 10.2681 19.6488 9.64295 19.0237C9.01783 18.3986 8.66664 17.5507 8.66664 16.6667C8.66664 15.7826 9.01783 14.9348 9.64295 14.3097C10.2681 13.6845 11.1159 13.3334 12 13.3334V12H14.6666ZM18.6666 5.33335C17.5369 5.33203 16.4197 5.57061 15.3891 6.0333C14.3584 6.496 13.4377 7.17226 12.688 8.01735C14.195 7.92587 15.7043 8.15535 17.116 8.69062C18.5277 9.22588 19.8097 10.0547 20.8772 11.1224C21.9448 12.19 22.7735 13.4721 23.3086 14.8839C23.8437 16.2957 24.073 17.805 23.9813 19.312C25.1936 18.2342 26.0496 16.8133 26.4357 15.2378C26.8219 13.6623 26.72 12.0066 26.1435 10.4903C25.567 8.97406 24.5432 7.66887 23.2079 6.74786C21.8725 5.82686 20.2888 5.33354 18.6666 5.33335Z" fill="currentColor"/>
</svg>
