<svg width="32" height="32" viewBox="0 0 32 32" fill="none" xmlns="http://www.w3.org/2000/svg">
    <path d="M29.1313 25.3333H31.9057V28H1.38721V25.3333H4.16162V5.33333C4.16162 4.97971 4.30777 4.64057 4.56792 4.39052C4.82807 4.14048 5.18091 4 5.54882 4H19.4209C19.7888 4 20.1416 4.14048 20.4018 4.39052C20.6619 4.64057 20.8081 4.97971 20.8081 5.33333V25.3333H26.3569V14.6667H23.5825V12H27.7441C28.112 12 28.4649 12.1405 28.725 12.3905C28.9852 12.6406 29.1313 12.9797 29.1313 13.3333V25.3333ZM6.93603 6.66667V25.3333H18.0337V6.66667H6.93603ZM9.71044 14.6667H15.2593V17.3333H9.71044V14.6667ZM9.71044 9.33333H15.2593V12H9.71044V9.33333Z" fill="currentColor"/>
</svg>
