<svg width="32" height="32" viewBox="0 0 32 32" fill="none" xmlns="http://www.w3.org/2000/svg">
    <path d="M25.3334 9.33331H32V12H25.3334V9.33331ZM22.6667 16H32V18.6666H22.6667V16ZM26.6667 22.6666H32V25.3333H26.6667V22.6666ZM2.66669 29.3333C2.66669 26.5043 3.79049 23.7912 5.79088 21.7908C7.79127 19.7905 10.5044 18.6666 13.3334 18.6666C16.1623 18.6666 18.8754 19.7905 20.8758 21.7908C22.8762 23.7912 24 26.5043 24 29.3333H21.3334C21.3334 27.2116 20.4905 25.1768 18.9902 23.6765C17.4899 22.1762 15.4551 21.3333 13.3334 21.3333C11.2116 21.3333 9.17679 22.1762 7.6765 23.6765C6.17621 25.1768 5.33335 27.2116 5.33335 29.3333H2.66669ZM13.3334 17.3333C8.91335 17.3333 5.33335 13.7533 5.33335 9.33331C5.33335 4.91331 8.91335 1.33331 13.3334 1.33331C17.7534 1.33331 21.3334 4.91331 21.3334 9.33331C21.3334 13.7533 17.7534 17.3333 13.3334 17.3333ZM13.3334 14.6666C16.28 14.6666 18.6667 12.28 18.6667 9.33331C18.6667 6.38665 16.28 3.99998 13.3334 3.99998C10.3867 3.99998 8.00002 6.38665 8.00002 9.33331C8.00002 12.28 10.3867 14.6666 13.3334 14.6666Z" fill="currentColor"/>
</svg>
